<svg xmlns="http://www.w3.org/2000/svg" viewBox="0 0 120 120">
  <defs>
    <clipPath id="circleClip1"><circle cx="60" cy="60" r="58"/></clipPath>
    <linearGradient id="bg1" x1="0%" y1="0%" x2="100%" y2="100%">
      <stop offset="0%" stop-color="#e0e7ff"/>
      <stop offset="100%" stop-color="#c7d2fe"/>
    </linearGradient>
  </defs>
  <g clip-path="url(#circleClip1)">
    <rect width="120" height="120" fill="url(#bg1)"/>
    <!-- Body / Shirt -->
    <path d="M 20 120 C 20 92 40 85 60 85 C 80 85 100 92 100 120 Z" fill="#1e293b"/>
    <!-- Neck -->
    <rect x="52" y="68" width="16" height="22" fill="#fcd34d" rx="4"/>
    <!-- Head -->
    <ellipse cx="60" cy="52" rx="20" ry="24" fill="#fde68a"/>
    <!-- Hair -->
    <path d="M 38 48 C 38 30 50 24 60 24 C 72 24 82 30 82 48 C 82 40 76 34 60 34 C 46 34 40 40 38 48 Z" fill="#334155"/>
    <!-- Eyes -->
    <circle cx="53" cy="52" r="2.5" fill="#1e293b"/>
    <circle cx="67" cy="52" r="2.5" fill="#1e293b"/>
    <!-- Smile -->
    <path d="M 54 62 Q 60 67 66 62" stroke="#b45309" stroke-width="2" fill="none" stroke-linecap="round"/>
  </g>
  <circle cx="60" cy="60" r="58" fill="none" stroke="#ffffff" stroke-width="4"/>
</svg>
